<svg width="60" height="23" viewBox="0 0 60 23" fill="none" xmlns="http://www.w3.org/2000/svg">
<path fill-rule="evenodd" clip-rule="evenodd" d="M56.7175 9.44263C56.7175 8.78247 57.2305 8.24402 57.8451 8.24402C58.4779 8.24402 58.974 8.78247 58.974 9.44263C58.974 10.1028 58.4779 10.6412 57.8451 10.6412C57.2305 10.6584 56.7175 10.12 56.7175 9.44263ZM57.8451 10.3806C58.3242 10.3806 58.7005 9.96388 58.7005 9.45983C58.7005 8.95578 58.3073 8.53904 57.8451 8.53904C57.3672 8.53904 56.9909 8.95578 56.9909 9.45983C56.9909 9.96388 57.3672 10.3806 57.8451 10.3806ZM57.6914 9.98108H57.4518V8.92138H57.8802C57.9649 8.92138 58.0677 8.92138 58.1367 8.97298C58.2214 9.02589 58.2565 9.12909 58.2565 9.2336C58.2565 9.35531 58.1875 9.45983 58.0847 9.49423L58.2735 9.96388H58.0169L57.8633 9.54582H57.6914V9.98108ZM57.6914 9.38971H57.8281C57.8802 9.38971 57.931 9.38971 57.9649 9.37251C57.9987 9.35531 58.0169 9.30372 58.0169 9.2508C58.0169 9.2164 57.9987 9.16481 57.9649 9.14761C57.931 9.12909 57.8633 9.12909 57.8281 9.12909H57.7084L57.6914 9.38971Z" fill="#FD0C15"/>
<path fill-rule="evenodd" clip-rule="evenodd" d="M40.5586 1.43339L40.2513 3.48399C39.5846 3.11885 39.0885 2.97994 38.5586 2.97994C37.1562 2.97994 36.164 4.43918 36.164 6.50698C36.164 7.9305 36.8307 8.79969 37.9258 8.79969C38.3867 8.79969 38.8997 8.64358 39.5325 8.31284L39.207 10.468C38.5065 10.6757 38.0625 10.7458 37.5325 10.7458C35.4974 10.7458 34.2318 9.18203 34.2318 6.68029C34.2318 3.30936 35.9765 0.946533 38.4896 0.946533C38.8138 0.946533 39.1054 0.980931 39.345 1.05105L40.1315 1.26008C40.3359 1.34607 40.388 1.36327 40.5586 1.43339Z" fill="#FD0C15"/>
<path fill-rule="evenodd" clip-rule="evenodd" d="M34.2838 2.84105C34.2318 2.82385 34.164 2.82385 34.095 2.82385C33.4791 2.82385 33.1211 3.15327 32.539 4.07406L32.7096 2.90985H31L29.8372 10.5712H31.7357C32.4193 5.88124 32.5898 5.08217 33.4961 5.08217C33.5482 5.08217 33.5651 5.08217 33.6328 5.08217C33.8047 4.16138 34.026 3.48402 34.3515 2.85825L34.2838 2.84105Z" fill="#FD0C15"/>
<path fill-rule="evenodd" clip-rule="evenodd" d="M22.9805 10.468C22.4675 10.6413 22.0573 10.7273 21.6302 10.7273C20.6732 10.7273 20.1432 10.1372 20.1432 9.04313C20.1432 8.8341 20.1602 8.59067 20.194 8.34725L20.3138 7.60109L20.3985 6.99252L21.2201 1.76282H23.1003L22.8789 2.89264H23.8529L23.5794 4.75141H22.6211L22.1263 7.94771C22.1094 8.08662 22.0912 8.19114 22.0912 8.26125C22.0912 8.66079 22.2969 8.8341 22.7422 8.8341C22.9636 8.8341 23.1172 8.8169 23.2539 8.76531L22.9805 10.468Z" fill="#FD0C15"/>
<path fill-rule="evenodd" clip-rule="evenodd" d="M15.526 5.3243C15.526 6.29801 15.9701 6.95817 16.9622 7.46223C17.7148 7.84457 17.8516 7.96496 17.8516 8.3129C17.8516 8.78255 17.5091 9.00746 16.7734 9.00746C16.2096 9.00746 15.6966 8.92146 15.0807 8.69524L14.8242 10.468L14.9102 10.4852L15.2526 10.554C15.3724 10.5712 15.526 10.6056 15.7474 10.6241C16.1927 10.6585 16.5521 10.6929 16.7904 10.6929C18.7747 10.6929 19.6979 9.87665 19.6979 8.13959C19.6979 7.09709 19.3216 6.47132 18.3646 6.00299C17.5781 5.62065 17.4922 5.53333 17.4922 5.16819C17.4922 4.75146 17.7995 4.54375 18.4154 4.54375C18.7917 4.54375 19.2878 4.59535 19.7669 4.66414L20.0404 2.89268C19.5443 2.80537 18.8086 2.73657 18.3815 2.73657C16.2435 2.73657 15.5091 3.90079 15.526 5.3243Z" fill="#FD0C15"/>
<path fill-rule="evenodd" clip-rule="evenodd" d="M55.6224 10.554H53.8268L53.9128 9.80783C53.3998 10.3979 52.8529 10.6585 52.1693 10.6585C50.7839 10.6585 49.8776 9.38977 49.8776 7.4794C49.8776 4.92474 51.28 2.77094 52.9557 2.77094C53.6901 2.77094 54.2383 3.10168 54.7682 3.81344L55.1784 1.11987H57.0417L55.6224 10.554ZM52.836 8.76533C53.7253 8.76533 54.3399 7.70563 54.3399 6.17627C54.3399 5.20389 53.9818 4.66411 53.3307 4.66411C52.4766 4.66411 51.8607 5.74234 51.8607 7.23597C51.8607 8.24408 52.1862 8.76533 52.836 8.76533Z" fill="#FD0C15"/>
<path fill-rule="evenodd" clip-rule="evenodd" d="M28.9648 10.3979C28.3151 10.6056 27.7005 10.7101 27.0169 10.7101C24.9127 10.7101 23.8021 9.52868 23.8021 7.27037C23.8021 4.62972 25.2031 2.70215 27.1015 2.70215C28.6575 2.70215 29.6497 3.79625 29.6497 5.49891C29.6497 6.05456 29.5807 6.61021 29.4101 7.39208H25.6484C25.6315 7.5138 25.6315 7.56671 25.6315 7.63551C25.6315 8.5391 26.1953 8.99023 27.2903 8.99023C27.957 8.99023 28.5729 8.83412 29.2565 8.5047L28.9648 10.3979ZM27.9049 5.82833C27.9232 5.67222 27.9232 5.53331 27.9232 5.44599C27.9232 4.82023 27.5976 4.45641 27.0338 4.45641C26.4349 4.45641 26.0078 4.94326 25.8359 5.82833H27.9049Z" fill="#FD0C15"/>
<path fill-rule="evenodd" clip-rule="evenodd" d="M7.93359 10.5539H6.05339L7.13021 3.3093L4.70182 10.5539H3.41927L3.26562 3.36222L2.11979 10.5539H0.359375L1.82943 1.13831H4.54818L4.61719 6.97526L6.46354 1.13831H9.40495L7.93359 10.5539Z" fill="#FD0C15"/>
<path fill-rule="evenodd" clip-rule="evenodd" d="M12.8073 7.14867C12.6016 7.13147 12.5169 7.11427 12.3802 7.11427C11.3021 7.11427 10.7721 7.51381 10.7721 8.27849C10.7721 8.74814 11.0456 9.06036 11.4557 9.06036C12.2083 9.06036 12.7734 8.27849 12.8073 7.14867ZM14.1745 10.554H12.6016L12.6354 9.75492C12.1576 10.3979 11.5247 10.6757 10.6523 10.6757C9.6263 10.6757 8.92578 9.82504 8.92578 8.59071C8.92578 6.71473 10.1562 5.63784 12.2435 5.63784C12.4648 5.63784 12.7383 5.65503 13.0117 5.68943C13.0638 5.42881 13.0807 5.32429 13.0807 5.18538C13.0807 4.68265 12.7565 4.49082 11.8672 4.49082C11.3372 4.49082 10.7214 4.57814 10.293 4.71705L10.0547 4.80304L9.88281 4.85596L10.1393 3.1361C11.0794 2.84107 11.7122 2.71936 12.3971 2.71936C14.0208 2.71936 14.8763 3.50124 14.8763 4.96047C14.8763 5.34281 14.8411 5.62064 14.7214 6.48851L14.3464 9.21647L14.2773 9.70333L14.2266 10.0843L14.1927 10.3635L14.1745 10.554Z" fill="#FD0C15"/>
<path fill-rule="evenodd" clip-rule="evenodd" d="M43.8242 7.14866C43.6367 7.13146 43.5338 7.11426 43.3971 7.11426C42.3203 7.11426 41.7721 7.5138 41.7721 8.27847C41.7721 8.74813 42.0469 9.06035 42.457 9.06035C43.2265 9.06035 43.7903 8.27847 43.8242 7.14866ZM45.1927 10.554H43.6198L43.6536 9.75491C43.1745 10.3979 42.5416 10.6757 41.6706 10.6757C40.6445 10.6757 39.9427 9.82503 39.9427 8.5907C39.9427 6.71472 41.1745 5.63782 43.2604 5.63782C43.4648 5.63782 43.7565 5.65502 44.0299 5.68942C44.0807 5.42879 44.0976 5.32428 44.0976 5.18537C44.0976 4.68264 43.7734 4.49081 42.8841 4.49081C42.3541 4.49081 41.7383 4.57812 41.3112 4.71703L41.0377 4.78583L40.8659 4.83875L41.1224 3.11888C42.0638 2.82386 42.6966 2.70215 43.3802 2.70215C45.0039 2.70215 45.8594 3.48403 45.8594 4.94326C45.8594 5.32428 45.8255 5.60343 45.7057 6.47129L45.3125 9.18206L45.2604 9.66892L45.2096 10.0499L45.1758 10.3106L45.1927 10.554Z" fill="#FD0C15"/>
<path fill-rule="evenodd" clip-rule="evenodd" d="M50.4766 2.84105C50.4245 2.82385 50.3568 2.82385 50.2878 2.82385C49.6719 2.82385 49.3125 3.15327 48.7318 4.07406L48.9037 2.90985H47.1927L46.03 10.5712H47.9284C48.612 5.88124 48.7826 5.08217 49.6888 5.08217C49.7409 5.08217 49.7409 5.08217 49.8268 5.08217C49.9974 4.16138 50.237 3.48402 50.5443 2.85825L50.4766 2.84105Z" fill="#FD0C15"/>
<path fill-rule="evenodd" clip-rule="evenodd" d="M42.5416 18.0076C42.5416 19.7447 42.0117 20.77 41.1745 20.77C40.5586 20.7872 40.1992 20.0926 40.1992 19.0673C40.1992 17.8515 40.7461 16.4611 41.6015 16.4611C42.3021 16.4611 42.5416 17.2085 42.5416 18.0076ZM44.4062 18.0248C44.4062 16.0959 43.4648 14.5851 41.7044 14.5851C39.6693 14.5851 38.3528 16.4095 38.3528 19.1017C38.3528 21.0306 39.1393 22.6116 41.0547 22.6116C42.987 22.6116 44.4062 21.2211 44.4062 18.0248Z" fill="#F3AE12"/>
<path fill-rule="evenodd" clip-rule="evenodd" d="M38.9518 13.2475L38.6602 15.2968C38.0287 14.9329 37.5834 14.7927 37.0873 14.7927C35.7709 14.7927 34.8477 16.2533 34.8477 18.3197C34.8477 19.7446 35.4636 20.6138 36.4896 20.6138C36.9336 20.6138 37.4128 20.4563 37.9935 20.1269L37.6862 22.2807C37.0365 22.4898 36.6081 22.5585 36.1133 22.5585C34.2149 22.5585 33.0182 20.9961 33.0182 18.4931C33.0182 15.1234 34.6589 12.7606 37.0026 12.7606C37.3099 12.7606 37.5664 12.795 37.7891 12.8651L38.5065 13.0728C38.7461 13.143 38.7969 13.1602 38.9518 13.2475Z" fill="#F3AE12"/>
<path fill-rule="evenodd" clip-rule="evenodd" d="M27.2721 14.6367C27.2213 14.6195 27.1536 14.6195 27.0846 14.6195C26.5039 14.6195 26.1784 14.9502 25.6315 15.8697L25.8021 14.7068H24.2122L23.1341 22.3682H24.8958C25.5286 17.6769 25.6992 16.8778 26.5377 16.8778C26.5885 16.8778 26.5885 16.8778 26.6745 16.895C26.8281 15.9742 27.0508 15.2969 27.3411 14.6711L27.2721 14.6367Z" fill="#F3AE12"/>
<path fill-rule="evenodd" clip-rule="evenodd" d="M50.3216 22.2979H48.6458L48.7318 21.5518C48.2526 22.1418 47.7396 22.4024 47.0898 22.4024C45.8073 22.4024 44.9531 21.1337 44.9531 19.2233C44.9531 16.67 46.2695 14.5149 47.8255 14.5149C48.5091 14.5149 49.0391 14.8456 49.5182 15.5746L49.9115 12.8823H51.6562L50.3216 22.2979ZM47.7057 20.4921C48.5443 20.4921 49.1081 19.4324 49.1081 17.903C49.1081 16.9306 48.7826 16.4094 48.168 16.4094C47.3646 16.4094 46.7995 17.4691 46.7995 18.9799C46.7995 19.988 47.1068 20.4921 47.7057 20.4921Z" fill="#F3AE12"/>
<path fill-rule="evenodd" clip-rule="evenodd" d="M10.7214 22.2636C10.1224 22.4726 9.54169 22.5771 8.90887 22.5771C6.94273 22.5771 5.91669 21.3957 5.91669 19.1361C5.91669 16.514 7.23309 14.5679 8.99351 14.5679C10.4479 14.5679 11.3711 15.6448 11.3711 17.3646C11.3711 17.9203 11.3021 18.4759 11.1485 19.2578H7.64325C7.62632 19.3795 7.62632 19.4324 7.62632 19.5012C7.62632 20.3876 8.15627 20.8388 9.18231 20.8388C9.81512 20.8388 10.3789 20.6826 11.0117 20.3532L10.7214 22.2636ZM9.72919 17.6941C9.72919 17.5379 9.74611 17.399 9.74611 17.313C9.74611 16.6873 9.43882 16.3221 8.90887 16.3221C8.34377 16.3221 7.95054 16.809 7.77997 17.6941H9.72919Z" fill="#F3AE12"/>
<path fill-rule="evenodd" clip-rule="evenodd" d="M31.7187 22.2636C31.1198 22.4726 30.539 22.5771 29.9062 22.5771C27.9232 22.5771 26.8958 21.3957 26.8958 19.1361C26.8958 16.514 28.2135 14.5679 29.9739 14.5679C31.4271 14.5679 32.3685 15.6448 32.3685 17.3646C32.3685 17.9203 32.2995 18.4759 32.1458 19.2578H28.6406C28.6237 19.3795 28.6237 19.4324 28.6237 19.5012C28.6237 20.3876 29.1536 20.8388 30.1797 20.8388C30.8125 20.8388 31.3763 20.6826 32.0091 20.3532L31.7187 22.2636ZM30.7265 17.6941C30.7435 17.5379 30.7435 17.399 30.7435 17.313C30.7435 16.6873 30.4362 16.3221 29.9062 16.3221C29.3411 16.3221 28.9479 16.809 28.7773 17.6941H30.7265Z" fill="#F3AE12"/>
<path fill-rule="evenodd" clip-rule="evenodd" d="M56.3411 22.2636C55.7253 22.4726 55.1445 22.5771 54.5286 22.5771C52.5625 22.5771 51.5195 21.3957 51.5195 19.1361C51.5195 16.514 52.8359 14.5679 54.6146 14.5679C56.0677 14.5679 56.9909 15.6448 56.9909 17.3646C56.9909 17.9203 56.9219 18.4759 56.7682 19.2578H53.263C53.2461 19.3795 53.2461 19.4324 53.2461 19.5012C53.2461 20.3876 53.776 20.8388 54.8021 20.8388C55.4349 20.8388 55.9987 20.6826 56.6315 20.3532L56.3411 22.2636ZM55.349 17.6941C55.349 17.5379 55.3659 17.399 55.3659 17.313C55.3659 16.6873 55.0586 16.3221 54.5286 16.3221C53.9635 16.3221 53.5716 16.809 53.3997 17.6941H55.349Z" fill="#F3AE12"/>
<path fill-rule="evenodd" clip-rule="evenodd" d="M5.48828 14.9846C5.14713 14.7411 4.66797 14.5506 4.01823 14.5506C3.29948 14.5506 2.73568 14.7067 2.73568 15.4701C2.73568 16.8261 5.33464 16.3221 5.33464 19.2406C5.33464 21.8984 3.625 22.5943 2.06901 22.5943C1.38542 22.5943 0.580729 22.3681 0 22.0902L0.427083 20.1441C0.786458 20.4749 1.48828 20.6998 2.08594 20.6998C2.64974 20.6998 3.50521 20.5437 3.50521 19.5528C3.50521 18.0075 0.90625 18.5804 0.90625 15.8696C0.90625 13.3864 2.42839 12.6561 3.89844 12.6561C4.71875 12.6561 5.50651 12.7778 5.95052 13.0901L5.48828 14.9846Z" fill="#F3AE12"/>
<path fill-rule="evenodd" clip-rule="evenodd" d="M15.8854 22.2636C15.5261 22.4369 15.03 22.5586 14.3112 22.5586C12.7735 22.5586 11.8151 20.9962 11.8151 19.0845C11.8151 16.5828 13.2005 14.6023 15.2344 14.6023C15.6797 14.6023 16.3633 14.7928 16.8932 15.1063L16.5013 16.9307C16.1237 16.6701 15.7305 16.514 15.3203 16.514C14.3802 16.514 13.6966 17.3991 13.6966 18.9628C13.6966 19.8664 14.1927 20.6139 14.9623 20.6139C15.4232 20.6139 15.7474 20.5094 16.1419 20.2831L15.8854 22.2636Z" fill="#F3AE12"/>
<path fill-rule="evenodd" clip-rule="evenodd" d="M22.4844 20.3347C22.3997 20.9962 22.3138 21.6378 22.263 22.3152H20.5703L20.707 21.0822H20.6901C20.1602 21.917 19.6133 22.4898 18.638 22.4898C17.5781 22.4898 16.9961 21.3428 16.9961 19.8664C16.9961 19.3451 17.0299 19.0673 17.1328 18.2682L17.612 14.724H19.5104L18.9974 18.2854C18.9453 18.6678 18.8776 19.0501 18.8776 19.4497C18.8776 19.9008 19.082 20.3532 19.5951 20.3175C20.3646 20.3175 20.8268 19.3623 20.9635 18.2338L21.4935 14.724H23.3229L22.4844 20.3347Z" fill="#F3AE12"/>
<path fill-rule="evenodd" clip-rule="evenodd" d="M58.1016 22.2292H57.8112V20.9604H57.4011V20.6826H58.5117V20.9604H58.1016V22.2292Z" fill="#F3AE12"/>
<path fill-rule="evenodd" clip-rule="evenodd" d="M60 22.2292H59.7266V20.9432L59.4701 22.2292H59.1966L58.9401 20.9432V22.2292H58.6667V20.6826H59.0938L59.3334 21.8984H59.3503L59.5899 20.6826H60V22.2292Z" fill="#F3AE12"/>
</svg>
