<svg width="60" height="26" viewBox="0 0 60 26" fill="none" xmlns="http://www.w3.org/2000/svg">
<path d="M24.2664 13.8067L21.2679 21.9044L20.9466 20.2569C20.1969 18.2386 18.5741 16.1215 16.6876 15.2565L19.4391 25.6609H22.693L27.5286 13.7902H24.2664V13.8067ZM26.8449 25.6856L28.7643 13.7902H31.837L29.9176 25.6856H26.8449ZM41.0552 14.0867C40.4456 13.8478 39.49 13.5842 38.3037 13.5842C35.264 13.5842 33.1304 15.1988 33.1139 17.5054C33.0974 19.2189 34.6379 20.1663 35.7994 20.7347C37.0021 21.3196 37.3976 21.6903 37.3976 22.2092C37.3893 23.0083 36.442 23.3708 35.5605 23.3708C34.3331 23.3708 33.6823 23.1896 32.669 22.7529L32.2736 22.5635L31.8453 25.2243C32.5619 25.5538 33.8882 25.8421 35.2722 25.8586C38.4932 25.8586 40.5938 24.2605 40.6186 21.7974C40.635 20.4381 39.8112 19.4166 38.0401 18.5681C36.9692 18.0162 36.3102 17.6537 36.3184 17.0935C36.3184 16.5993 36.8703 16.0721 38.0813 16.0721C39.0863 16.0556 39.8112 16.2862 40.3797 16.5334L40.6515 16.6734L41.0552 14.0867ZM48.9305 13.8067H46.558C45.8249 13.8067 45.2729 14.0126 44.9434 14.7952L40.3879 25.6939H43.6089C43.6089 25.6939 44.1361 24.2275 44.2597 23.9062C44.6139 23.9062 47.7443 23.9145 48.1891 23.9145C48.288 24.3264 48.5598 25.6939 48.5598 25.6939H51.4184L48.9305 13.8067ZM45.1411 21.4678C45.3965 20.7841 46.3603 18.1398 46.3603 18.1398C46.3439 18.1727 46.6157 17.456 46.7722 17.0029L46.9782 18.0244C46.9782 18.0244 47.5713 20.8665 47.6949 21.4596C47.2171 21.4678 45.7425 21.4678 45.1411 21.4678Z" fill="#11559C"/>
<path d="M18.4753 13.7983H13.5243L13.4914 14.0043C17.3385 14.9928 19.884 17.4065 20.9384 20.265L19.8675 14.7951C19.6863 14.0455 19.1426 13.8231 18.4753 13.7983Z" fill="#F2A724"/>
<path d="M4.23206 10.9234H2.27969L0.0142822 0.741406L2.18083 0.378941L3.72955 8.34493L7.66724 0.486032H9.74317L4.23206 10.9234ZM14.4223 7.59529H9.75141C9.61961 9.0122 10.2786 9.63004 11.399 9.63004C12.3299 9.63004 13.1536 9.28405 14.0351 8.72387L14.0269 10.1408C13.1619 10.6845 12.1569 11.0305 10.9789 11.0305C8.9441 11.0305 7.60133 9.86893 8.00499 7.2493C8.36745 4.88504 10.0068 3.45166 11.9015 3.45166C14.0845 3.45166 14.8094 5.09099 14.4964 7.15868C14.4799 7.30696 14.4305 7.4882 14.4223 7.59529ZM11.6708 4.70381C10.9459 4.70381 10.2704 5.27222 9.95736 6.46671H12.8488C12.8983 5.33812 12.544 4.70381 11.6708 4.70381ZM17.462 6.7056L16.8195 10.874H15.0154L16.1357 3.59994H17.6762V5.05803C18.2858 4.21777 19.1178 3.50932 20.2629 3.44342L20.2711 5.23927C19.1178 5.32165 18.0963 5.92301 17.462 6.7056ZM20.2382 10.874L21.3585 3.59994H23.1626L22.0505 10.874H20.2382ZM22.4624 2.38074C21.861 2.38074 21.4409 1.96061 21.5398 1.35924C21.6386 0.741406 22.1823 0.3048 22.7837 0.3048C23.3686 0.3048 23.7887 0.741406 23.6898 1.35924C23.5992 1.96061 23.0555 2.38074 22.4624 2.38074ZM28.1712 1.61462C27.5534 1.61462 27.1827 1.88646 27.0838 2.53725L26.9191 3.60817H28.303V5.08275H26.6884L25.7987 10.874H24.0029L24.8926 5.07451H23.8381L24.0688 3.59994H25.1232L25.3127 2.34778C25.5598 0.733168 26.6802 0.131806 28.1712 0.131806C28.4843 0.131806 28.7232 0.164757 28.9044 0.189471L28.9209 1.66404C28.7396 1.64757 28.476 1.61462 28.1712 1.61462ZM28.1877 10.874L29.308 3.59994H31.1121L30 10.874H28.1877ZM30.4202 2.38074C29.8188 2.38074 29.3987 1.96061 29.4893 1.35924C29.5881 0.741406 30.1318 0.3048 30.7332 0.3048C31.3181 0.3048 31.7382 0.741406 31.6394 1.35924C31.5487 1.96061 31.005 2.38074 30.4202 2.38074ZM38.1308 7.59529H33.4599C33.3364 9.0122 33.9871 9.63004 35.1075 9.63004C36.0384 9.63004 36.8621 9.28405 37.7436 8.72387L37.7354 10.1408C36.8704 10.6845 35.8654 11.0305 34.6874 11.0305C32.6526 11.0305 31.3098 9.86893 31.7135 7.2493C32.076 4.88504 33.7153 3.45166 35.61 3.45166C37.793 3.45166 38.518 5.09099 38.2049 7.15868C38.1884 7.30696 38.139 7.4882 38.1308 7.59529ZM35.3793 4.70381C34.6544 4.70381 33.9789 5.27222 33.6659 6.46671H36.5574C36.6068 5.33812 36.2525 4.70381 35.3793 4.70381ZM43.4771 10.874L43.4854 9.8607C42.8758 10.4785 42.0849 11.0222 41.0799 11.0222C39.5559 11.0222 38.5097 9.89365 38.8887 7.43877C39.3088 4.72852 40.9811 3.5258 42.6698 3.5258C43.3618 3.5258 43.9055 3.64936 44.3174 3.79765L44.8611 0.288324L46.7146 0L45.0423 10.874H43.4771ZM44.0867 5.2887C43.6666 5.07451 43.3371 4.97566 42.7193 4.97566C41.7719 4.97566 40.9564 5.74178 40.7175 7.33992C40.5033 8.75683 40.9975 9.41585 41.7966 9.41585C42.4556 9.41585 43.0323 9.02044 43.6089 8.41908L44.0867 5.2887ZM50.5699 10.9481C49.7132 10.9481 49.013 10.808 48.3704 10.5856L49.5567 2.85853L50.9571 2.64435L50.4464 5.98891C50.8582 5.62645 51.4267 5.25574 52.1186 5.25574C53.2802 5.25574 54.0628 6.12072 53.7744 7.97423C53.4614 10.0007 52.2092 10.9481 50.5699 10.9481ZM51.5832 6.45847C51.1301 6.45847 50.6688 6.76327 50.2651 7.17516L49.8779 9.67123C50.1498 9.77008 50.331 9.81951 50.7182 9.81951C51.5832 9.81951 52.1928 9.29229 52.3822 8.04013C52.547 6.98569 52.1928 6.45847 51.5832 6.45847ZM57.0037 11.1788C56.3035 12.538 55.6115 12.9581 54.5488 12.9581C54.3099 12.9581 54.1781 12.9334 54.0545 12.9005L54.0463 11.7719C54.2193 11.8213 54.4088 11.8543 54.6724 11.8543C55.0678 11.8543 55.422 11.673 55.6527 11.2694L55.8339 10.9069L54.6724 5.47816L56.1305 5.29693L56.806 9.21814L58.6265 5.37107H59.9858L57.0037 11.1788Z" fill="#11559C"/>
</svg>
