<svg width="40" height="26" viewBox="0 0 40 26" fill="none" xmlns="http://www.w3.org/2000/svg">
<path d="M25.4084 3.29842H14.5923V22.7353H25.4084V3.29842Z" fill="#FF5F00"/>
<path d="M15.279 13.0176C15.2772 11.1456 15.7014 9.29788 16.5194 7.61414C17.3374 5.9304 18.5277 4.45481 20.0003 3.2991C18.1767 1.86575 15.9867 0.974374 13.6805 0.726848C11.3743 0.479322 9.04498 0.885638 6.95879 1.89935C4.8726 2.91307 3.1137 4.49328 1.88314 6.45937C0.652576 8.42547 0 10.6981 0 13.0176C0 15.337 0.652576 17.6097 1.88314 19.5758C3.1137 21.5418 4.8726 23.1221 6.95879 24.1358C9.04498 25.1495 11.3743 25.5558 13.6805 25.3083C15.9867 25.0608 18.1767 24.1694 20.0003 22.736C18.5277 21.5803 17.3374 20.1047 16.5194 18.421C15.7014 16.7372 15.2773 14.8895 15.279 13.0176V13.0176Z" fill="#EB001B"/>
<path d="M40 13.0176C40.0001 15.337 39.3476 17.6096 38.1171 19.5757C36.8866 21.5418 35.1278 23.122 33.0416 24.1357C30.9555 25.1495 28.6262 25.5558 26.32 25.3083C24.0139 25.0608 21.8239 24.1694 20.0004 22.736C21.4716 21.5791 22.661 20.1033 23.4788 18.4198C24.2967 16.7364 24.7216 14.8892 24.7216 13.0176C24.7216 11.1459 24.2967 9.29876 23.4788 7.61528C22.661 5.9318 21.4716 4.45598 20.0004 3.2991C21.8239 1.86575 24.0139 0.974369 26.32 0.726846C28.6262 0.479323 30.9555 0.885646 33.0416 1.89937C35.1278 2.9131 36.8866 4.49332 38.1171 6.45941C39.3476 8.42551 40.0001 10.6981 40 13.0176V13.0176Z" fill="#F79E1B"/>
<path d="M38.8207 20.6769V20.279H38.9812V20.1979H38.5725V20.279H38.733V20.6769H38.8207ZM39.6141 20.6769V20.1972H39.4888L39.3447 20.5272L39.2006 20.1972H39.0753V20.6769H39.1637V20.315L39.2988 20.6271H39.3906L39.5257 20.3142V20.6769H39.6141Z" fill="#F79E1B"/>
</svg>
