<svg width="40" height="14" viewBox="0 0 40 14" fill="none" xmlns="http://www.w3.org/2000/svg">
<path d="M19.8054 0.7438L17.1331 13.2375H13.9007L16.5733 0.7438H19.8054ZM33.4037 8.81113L35.1049 4.11949L36.0839 8.81113H33.4037ZM37.0112 13.2375H40L37.3889 0.7438H34.632C34.0107 0.7438 33.4869 1.10405 33.2551 1.65959L28.4052 13.2375H31.7998L32.4736 11.3716H36.6198L37.0112 13.2375ZM28.5736 9.15873C28.5876 5.86143 24.0154 5.67878 24.046 4.20548C24.0559 3.75784 24.483 3.28098 25.4165 3.15903C25.8793 3.09945 27.1565 3.05112 28.6042 3.71822L29.1704 1.0678C28.3929 0.786512 27.3922 0.515625 26.1471 0.515625C22.9518 0.515625 20.7041 2.21289 20.6861 4.64525C20.6656 6.44396 22.2917 7.44686 23.5144 8.04596C24.775 8.65826 25.1973 9.05082 25.1911 9.59794C25.1824 10.4362 24.186 10.8074 23.2581 10.8214C21.6322 10.8467 20.6897 10.3819 19.9386 10.0318L19.3519 12.7707C20.1083 13.1169 21.5021 13.4182 22.9453 13.4336C26.3424 13.4336 28.5634 11.7563 28.5736 9.15873ZM15.1868 0.7438L9.94977 13.2375H6.53361L3.95625 3.26665C3.80001 2.6535 3.66372 2.42813 3.18855 2.16905C2.41129 1.74698 1.12823 1.35217 0 1.10658L0.0764338 0.7438H5.57623C6.27678 0.7438 6.90707 1.20998 7.06752 2.01703L8.42898 9.24725L11.7912 0.7438H15.1868Z" fill="#1434CB"/>
</svg>
