<svg width="206" height="124" viewBox="0 0 206 124" fill="none" xmlns="http://www.w3.org/2000/svg">
<rect y="37" width="142.796" height="77.2642" rx="8.58491" fill="#1A1919"/>
<path d="M25.9997 84.2107H26.3522V81.8069H27.1775V81.5105H25.1784V81.8069H25.9997V84.2107ZM28.6569 83.3053C28.6649 83.2652 28.6689 83.2131 28.6689 83.141C28.6689 82.7845 28.5047 82.2316 27.8677 82.2316C27.3028 82.2316 26.9583 82.6883 26.9583 83.2732C26.9583 83.8581 27.3148 84.2548 27.9118 84.2548C28.2202 84.2548 28.4366 84.1867 28.5608 84.1306L28.4967 83.8782C28.3685 83.9343 28.2122 83.9783 27.9598 83.9783C27.6033 83.9783 27.3028 83.782 27.2948 83.3053H28.6569ZM27.2988 83.0529C27.3268 82.8085 27.4791 82.484 27.8396 82.484C28.2363 82.484 28.3324 82.8325 28.3284 83.0529H27.2988ZM29.1055 85.0039H29.4541V83.9503H29.4621C29.5783 84.1426 29.8026 84.2548 30.059 84.2548C30.5157 84.2548 30.9444 83.9102 30.9444 83.2131C30.9444 82.6282 30.5919 82.2316 30.1191 82.2316C29.8026 82.2316 29.5703 82.3678 29.43 82.6042H29.422L29.402 82.2716H29.0895C29.0975 82.4559 29.1055 82.6563 29.1055 82.9046V85.0039ZM29.4541 83.0849C29.4541 83.0409 29.4661 82.9888 29.4781 82.9447C29.5422 82.6803 29.7706 82.512 30.011 82.512C30.3835 82.512 30.5879 82.8445 30.5879 83.2292C30.5879 83.6739 30.3715 83.9783 29.9989 83.9783C29.7465 83.9783 29.5342 83.8101 29.4701 83.5657C29.4581 83.5216 29.4541 83.4735 29.4541 83.4215V83.0849ZM31.2623 84.2107H31.5868L31.6389 83.2933C31.6509 83.0809 31.6589 82.8245 31.6669 82.5962H31.6829C31.731 82.7764 31.8151 83.0569 31.8792 83.2372L32.2238 84.1987H32.4762L32.8488 83.2211C32.9569 82.9207 33.013 82.7684 33.0651 82.5922H33.0771C33.0851 82.8285 33.1011 83.0729 33.1092 83.2852L33.1532 84.2107H33.4898L33.3535 82.2716H32.9169L32.6084 83.117C32.5282 83.3293 32.4201 83.6338 32.376 83.782H32.368C32.3239 83.6298 32.2438 83.3934 32.1917 83.2492L31.8432 82.2716H31.4105L31.2623 84.2107ZM34.3095 84.2107V82.2716H33.9569V84.2107H34.3095ZM34.1332 81.5064C34.001 81.5064 33.9128 81.6066 33.9128 81.7268C33.9128 81.847 33.997 81.9431 34.1252 81.9431C34.2654 81.9431 34.3495 81.847 34.3495 81.7268C34.3495 81.6026 34.2614 81.5064 34.1332 81.5064ZM34.8839 82.2716V84.2107H35.2364V83.3333H36.1538V84.2107H36.5064V82.2716H36.1538V83.0529H35.2364V82.2716H34.8839ZM38.1402 82.2716V82.7764C38.1402 83.0489 38.1042 83.3093 38.028 83.5497C37.984 83.6899 37.9199 83.8221 37.8357 83.9463L37.6715 83.9543L37.6875 84.8237H37.9599L37.98 84.2107H39.3221L39.3381 84.8237H39.6145L39.6346 83.9503L39.4342 83.9463V82.2716H38.1402ZM38.4487 82.5401H39.0897V83.9423H38.1963C38.2564 83.8341 38.3085 83.7139 38.3485 83.5817C38.4166 83.3654 38.4487 83.117 38.4487 82.8566V82.5401ZM40.4089 84.2107V82.2716H40.0563V84.2107H40.4089ZM40.2326 81.5064C40.1004 81.5064 40.0122 81.6066 40.0122 81.7268C40.0122 81.847 40.0964 81.9431 40.2246 81.9431C40.3648 81.9431 40.4489 81.847 40.4489 81.7268C40.4489 81.6026 40.3608 81.5064 40.2326 81.5064ZM41.3478 84.2107V82.2716H40.9953V84.2107H41.3478ZM40.799 81.9271C40.9192 81.9271 40.9993 81.831 40.9993 81.7228C40.9993 81.6066 40.9152 81.5185 40.807 81.5185C40.6908 81.5185 40.6027 81.6106 40.6027 81.7228C40.6027 81.831 40.6868 81.9271 40.799 81.9271ZM41.5401 81.9271C41.6603 81.9271 41.7405 81.831 41.7405 81.7228C41.7405 81.6066 41.6563 81.5185 41.5442 81.5185C41.432 81.5185 41.3438 81.6106 41.3438 81.7228C41.3438 81.831 41.424 81.9271 41.5401 81.9271Z" fill="#ABABAB"/>
<path d="M30.0269 95.9434H30.4699L30.2536 92.4717H29.6818L29.0637 94.1509C28.9092 94.5887 28.7856 94.9699 28.6928 95.3201H28.6825C28.5898 94.9596 28.4765 94.5784 28.3323 94.1509L27.7399 92.4717H27.1682L26.9261 95.9434H27.3536L27.4463 94.4548C27.4772 93.9294 27.503 93.3525 27.5133 92.9198H27.5236C27.6215 93.3319 27.7554 93.7748 27.9202 94.2693L28.4868 95.9228H28.8268L29.4397 94.2384C29.6149 93.7594 29.7539 93.3216 29.8776 92.9198H29.8879C29.8879 93.3473 29.9188 93.9345 29.9445 94.4187L30.0269 95.9434ZM34.1668 95.9434H34.6098L34.3935 92.4717H33.8217L33.2036 94.1509C33.0491 94.5887 32.9254 94.9699 32.8327 95.3201H32.8224C32.7297 94.9596 32.6164 94.5784 32.4722 94.1509L31.8798 92.4717H31.308L31.0659 95.9434H31.4935L31.5862 94.4548C31.6171 93.9294 31.6428 93.3525 31.6532 92.9198H31.6635C31.7613 93.3319 31.8952 93.7748 32.0601 94.2693L32.6267 95.9228H32.9666L33.5796 94.2384C33.7547 93.7594 33.8938 93.3216 34.0174 92.9198H34.0277C34.0277 93.3473 34.0586 93.9345 34.0844 94.4187L34.1668 95.9434ZM36.3386 96.1443L37.7808 92.4098H37.4254L35.9935 96.1443H36.3386ZM39.2473 95.9434H39.6954V94.5526C39.7984 94.5784 39.922 94.5835 40.0559 94.5835C40.4938 94.5835 40.8749 94.4548 41.117 94.2024C41.2922 94.0221 41.3849 93.7748 41.3849 93.4606C41.3849 93.1516 41.2664 92.8992 41.081 92.7344C40.8749 92.5489 40.5504 92.4459 40.1075 92.4459C39.7469 92.4459 39.4636 92.4768 39.2473 92.5129V95.9434ZM39.6954 92.8374C39.7726 92.8168 39.922 92.8013 40.1178 92.8013C40.6071 92.8013 40.9368 93.0228 40.9368 93.4864C40.9368 93.9551 40.6071 94.223 40.0663 94.223C39.9169 94.223 39.7933 94.2127 39.6954 94.1869V92.8374ZM41.9887 95.9434H42.4369V94.5526C42.5399 94.5784 42.6635 94.5835 42.7974 94.5835C43.2352 94.5835 43.6164 94.4548 43.8585 94.2024C44.0336 94.0221 44.1264 93.7748 44.1264 93.4606C44.1264 93.1516 44.0079 92.8992 43.8225 92.7344C43.6164 92.5489 43.2919 92.4459 42.8489 92.4459C42.4884 92.4459 42.2051 92.4768 41.9887 92.5129V95.9434ZM42.4369 92.8374C42.5141 92.8168 42.6635 92.8013 42.8592 92.8013C43.3486 92.8013 43.6782 93.0228 43.6782 93.4864C43.6782 93.9551 43.3486 94.223 42.8077 94.223C42.6583 94.223 42.5347 94.2127 42.4369 94.1869V92.8374Z" fill="white"/>
<path d="M25.4828 49.7463V52.4465H25.8354V51.1805H27.1414V52.4465H27.494V49.7463H27.1414V50.8761H25.8354V49.7463H25.4828ZM28.9096 50.4674C28.3768 50.4674 27.9481 50.848 27.9481 51.493C27.9481 52.106 28.3567 52.4906 28.8775 52.4906C29.3423 52.4906 29.8431 52.1781 29.8431 51.461C29.8431 50.8721 29.4665 50.4674 28.9096 50.4674ZM28.9016 50.7318C29.3182 50.7318 29.4825 51.1445 29.4825 51.473C29.4825 51.9097 29.2301 52.2262 28.8936 52.2262C28.549 52.2262 28.3087 51.9057 28.3087 51.481C28.3087 51.1164 28.4889 50.7318 28.9016 50.7318ZM30.1629 52.4465H30.4874L30.5395 51.5291C30.5515 51.3168 30.5595 51.0604 30.5675 50.832H30.5835C30.6316 51.0123 30.7157 51.2927 30.7798 51.473L31.1244 52.4345H31.3768L31.7494 51.457C31.8575 51.1565 31.9136 51.0043 31.9657 50.828H31.9777C31.9857 51.0644 32.0018 51.3087 32.0098 51.5211L32.0538 52.4465H32.3904L32.2542 50.5075H31.8175L31.509 51.3528C31.4289 51.5651 31.3207 51.8696 31.2766 52.0179H31.2686C31.2245 51.8656 31.1444 51.6293 31.0923 51.485L30.7438 50.5075H30.3111L30.1629 52.4465ZM34.4042 51.5411C34.4122 51.501 34.4162 51.449 34.4162 51.3769C34.4162 51.0203 34.252 50.4674 33.615 50.4674C33.0501 50.4674 32.7056 50.9241 32.7056 51.5091C32.7056 52.094 33.0621 52.4906 33.6591 52.4906C33.9675 52.4906 34.1839 52.4225 34.3081 52.3664L34.244 52.114C34.1158 52.1701 33.9595 52.2142 33.7071 52.2142C33.3506 52.2142 33.0501 52.0179 33.0421 51.5411H34.4042ZM33.0461 51.2887C33.0741 51.0443 33.2264 50.7198 33.5869 50.7198C33.9836 50.7198 34.0797 51.0684 34.0757 51.2887H33.0461ZM34.8528 53.2398H35.2014V52.1861H35.2094C35.3256 52.3784 35.5499 52.4906 35.8063 52.4906C36.263 52.4906 36.6917 52.1461 36.6917 51.449C36.6917 50.864 36.3392 50.4674 35.8664 50.4674C35.5499 50.4674 35.3176 50.6036 35.1773 50.84H35.1693L35.1493 50.5075H34.8368C34.8448 50.6918 34.8528 50.8921 34.8528 51.1405V53.2398ZM35.2014 51.3208C35.2014 51.2767 35.2134 51.2246 35.2254 51.1805C35.2895 50.9161 35.5179 50.7479 35.7583 50.7479C36.1308 50.7479 36.3352 51.0804 36.3352 51.465C36.3352 51.9097 36.1188 52.2142 35.7462 52.2142C35.4938 52.2142 35.2815 52.0459 35.2174 51.8015C35.2054 51.7575 35.2014 51.7094 35.2014 51.6573V51.3208ZM37.9827 50.5075V52.4465H38.3313V51.5932H38.3994C38.7239 51.5932 38.9042 51.7374 39.0364 52.0499C39.1005 52.2102 39.1646 52.3624 39.2167 52.4465H39.5853C39.4971 52.2903 39.433 52.102 39.3809 51.9738C39.2287 51.6252 39.0404 51.4169 38.7279 51.3809L39.5692 50.5075H39.1406L38.4154 51.3488H38.3313V50.5075H37.9827ZM41.3011 51.2567C41.3011 50.8721 41.1569 50.4674 40.5639 50.4674C40.3195 50.4674 40.0832 50.5355 39.9229 50.6357L40.003 50.8721C40.1393 50.7799 40.3276 50.7278 40.5118 50.7278C40.9085 50.7238 40.9525 51.0163 40.9525 51.1725V51.2126C40.2034 51.2086 39.7867 51.465 39.7867 51.9337C39.7867 52.2142 39.987 52.4906 40.3796 52.4906C40.6561 52.4906 40.8644 52.3544 40.9726 52.2021H40.9846L41.0126 52.4465H41.3291C41.3091 52.3143 41.3011 52.1501 41.3011 51.9818V51.2567ZM40.9605 51.7935C40.9605 51.8256 40.9565 51.8656 40.9445 51.9057C40.8884 52.0699 40.7242 52.2302 40.4678 52.2302C40.2915 52.2302 40.1393 52.126 40.1393 51.8937C40.1393 51.5171 40.5759 51.449 40.9605 51.457V51.7935ZM41.8717 53.2398H42.2202V52.1861H42.2282C42.3444 52.3784 42.5688 52.4906 42.8252 52.4906C43.2819 52.4906 43.7106 52.1461 43.7106 51.449C43.7106 50.864 43.358 50.4674 42.8853 50.4674C42.5688 50.4674 42.3364 50.6036 42.1962 50.84H42.1882L42.1681 50.5075H41.8556C41.8637 50.6918 41.8717 50.8921 41.8717 51.1405V53.2398ZM42.2202 51.3208C42.2202 51.2767 42.2322 51.2246 42.2443 51.1805C42.3084 50.9161 42.5367 50.7479 42.7771 50.7479C43.1497 50.7479 43.354 51.0804 43.354 51.465C43.354 51.9097 43.1377 52.2142 42.7651 52.2142C42.5127 52.2142 42.3003 52.0459 42.2362 51.8015C42.2242 51.7575 42.2202 51.7094 42.2202 51.6573V51.3208ZM43.8689 50.5075V50.7839H44.4738V52.4465H44.8264V50.7839H45.4313V50.5075H43.8689ZM45.741 50.5075V52.4465H46.0896V51.5932H46.1577C46.4822 51.5932 46.6625 51.7374 46.7947 52.0499C46.8588 52.2102 46.9229 52.3624 46.975 52.4465H47.3435C47.2554 52.2903 47.1913 52.102 47.1392 51.9738C46.987 51.6252 46.7987 51.4169 46.4862 51.3809L47.3275 50.5075H46.8988L46.1737 51.3488H46.0896V50.5075H45.741ZM47.6461 50.5075V52.4465H48.0547C48.259 52.106 48.4754 51.7334 48.6597 51.4329C48.7758 51.2366 48.856 51.0804 48.9842 50.828H48.9922C48.9762 51.1445 48.9681 51.3087 48.9681 51.6252V52.4465H49.3047V50.5075H48.892L48.2871 51.5091C48.1549 51.7334 48.0908 51.8696 47.9706 52.106L47.9586 52.102C47.9746 51.8256 47.9826 51.6293 47.9826 51.3248V50.5075H47.6461Z" fill="#ABABAB"/>
<path d="M23.5187 66.1793H24.1024V61.7151H23.5873L22.6121 62.2371L22.7288 62.6972L23.5049 62.2783H23.5187V66.1793ZM27.0398 66.1793H27.6236V61.7151H27.1085L26.1332 62.2371L26.25 62.6972L27.0261 62.2783H27.0398V66.1793ZM30.561 66.1793H31.1447V61.7151H30.6296L29.6544 62.2371L29.7712 62.6972L30.5472 62.2783H30.561V66.1793ZM34.0821 66.1793H34.6659V61.7151H34.1508L33.1755 62.2371L33.2923 62.6972L34.0684 62.2783H34.0821V66.1793ZM52.1574 66.1793H52.7411V61.7151H52.226L51.2508 62.2371L51.3676 62.6972L52.1436 62.2783H52.1574V66.1793ZM55.6785 66.1793H56.2623V61.7151H55.7472L54.7719 62.2371L54.8887 62.6972L55.6648 62.2783H55.6785V66.1793ZM59.1997 66.1793H59.7834V61.7151H59.2683L58.2931 62.2371L58.4099 62.6972L59.1859 62.2783H59.1997V66.1793ZM62.7208 66.1793H63.3046V61.7151H62.7895L61.8143 62.2371L61.931 62.6972L62.7071 62.2783H62.7208V66.1793ZM80.7961 66.1793H81.3798V61.7151H80.8648L79.8895 62.2371L80.0063 62.6972L80.7823 62.2783H80.7961V66.1793ZM84.3172 66.1793H84.901V61.7151H84.3859L83.4107 62.2371L83.5274 62.6972L84.3035 62.2783H84.3172V66.1793ZM87.8384 66.1793H88.4221V61.7151H87.9071L86.9318 62.2371L87.0486 62.6972L87.8246 62.2783H87.8384V66.1793ZM91.3595 66.1793H91.9433V61.7151H91.4282L90.453 62.2371L90.5697 62.6972L91.3458 62.2783H91.3595V66.1793ZM107.979 66.1793H108.563V61.7151H108.048L107.073 62.2371L107.19 62.6972L107.966 62.2783H107.979V66.1793ZM111.501 66.1793H112.084V61.7151H111.569L110.594 62.2371L110.711 62.6972L111.487 62.2783H111.501V66.1793ZM115.022 66.1793H115.605V61.7151H115.09L114.115 62.2371L114.232 62.6972L115.008 62.2783H115.022V66.1793ZM118.543 66.1793H119.127V61.7151H118.612L117.636 62.2371L117.753 62.6972L118.529 62.2783H118.543V66.1793Z" fill="white"/>
<g clip-path="url(#clip0_710_428)">
<rect x="39.2043" y="46.4434" width="142.796" height="77.2642" rx="8.58491" fill="#4E4E4E"/>
<rect x="135.569" y="83.2862" width="29.9057" height="14.1572" rx="7.07862" fill="white"/>
<path d="M148.834 91.3648L147.753 89.5826L148.809 87.893H148.288L147.82 88.7069C147.691 88.9284 147.603 89.0881 147.505 89.2941H147.49C147.397 89.1087 147.299 88.9335 147.171 88.7069L146.712 87.893H146.192L147.212 89.6083L146.151 91.3648H146.666L147.083 90.6024C147.258 90.2985 147.361 90.1131 147.459 89.9122H147.469C147.578 90.1131 147.686 90.3037 147.866 90.5973L148.314 91.3648H148.834ZM151.702 91.3648L150.62 89.5826L151.676 87.893H151.156L150.687 88.7069C150.558 88.9284 150.471 89.0881 150.373 89.2941H150.357C150.264 89.1087 150.167 88.9335 150.038 88.7069L149.579 87.893H149.059L150.079 89.6083L149.018 91.3648H149.533L149.95 90.6024C150.125 90.2985 150.228 90.1131 150.326 89.9122H150.337C150.445 90.1131 150.553 90.3037 150.733 90.5973L151.181 91.3648H151.702ZM154.569 91.3648L153.487 89.5826L154.543 87.893H154.023L153.554 88.7069C153.425 88.9284 153.338 89.0881 153.24 89.2941H153.224C153.132 89.1087 153.034 88.9335 152.905 88.7069L152.447 87.893H151.926L152.946 89.6083L151.885 91.3648H152.4L152.818 90.6024C152.993 90.2985 153.096 90.1131 153.194 89.9122H153.204C153.312 90.1131 153.42 90.3037 153.6 90.5973L154.049 91.3648H154.569Z" fill="#616161"/>
<rect x="135.569" y="83.2862" width="29.9057" height="14.1572" rx="7.07862" stroke="#00A4E4"/>
<rect x="10.8741" y="57.6038" width="181.428" height="15.4528" rx="7.72642" fill="black"/>
</g>
<path d="M188.275 0.345647C231.378 45.9671 171.02 86.7747 171.02 86.7747" stroke="#00AEEF"/>
<defs>
<clipPath id="clip0_710_428">
<rect x="39.2043" y="46.4434" width="142.796" height="77.2642" rx="8.58491" fill="white"/>
</clipPath>
</defs>
</svg>
